<?xml version="1.0" encoding="iso-8859-1"?>
<!-- Generator: Adobe Illustrator 19.0.0, SVG Export Plug-In . SVG Version: 6.00 Build 0)  -->
<svg xmlns="http://www.w3.org/2000/svg" xmlns:xlink="http://www.w3.org/1999/xlink" version="1.1" id="Layer_1" x="0px" y="0px" viewBox="0 0 512 512" style="enable-background:new 0 0 512 512;" xml:space="preserve">
<path style="fill:#FFC373;" d="M404.741,464.038c64.855-46.403,107.122-122.357,107.122-208.183  c0-141.277-114.528-255.805-255.805-255.805S0.253,114.577,0.253,255.854c0,195.673,211.028,318.154,380.455,223.434   M256.058,349.82c-51.895,0-93.964-42.071-93.964-93.965s42.07-93.963,93.964-93.963s93.964,42.069,93.964,93.963  S307.953,349.82,256.058,349.82z"/>
<path style="fill:#EF9A4D;" d="M31.539,255.854c0-136.022,106.173-247.229,240.163-255.316  C123.747-8.387,0.253,109.079,0.253,255.854c0,146.678,123.408,264.289,271.553,255.323  C137.766,503.142,31.539,391.913,31.539,255.854z"/>
<path style="fill:#FC3842;" d="M305.252,429.263c6.956,4.518,16.524,10.974,28.084,9.286c10.555-0.995,12.132-3.225,53.821-30.313  c4.906-2.896,19.42-9.534,35.866,1.148l0.002,0.003l24.592,15.976c39.967-45.133,64.245-104.48,64.245-169.51  c0-141.277-114.528-255.805-255.805-255.805S0.252,114.576,0.252,255.853c0,65.028,24.278,124.377,64.246,169.51l24.591-15.976  l0.002-0.003c16.444-10.682,30.959-4.045,35.868-1.148c26.748,17.381,17.752,11.536,39.571,25.711  c5.794,3.396,12.351,4.604,14.29,4.604c15.036,1.49,21.915-5.308,58.635-29.165c1.254-1.254,18.14-12.387,37.202-0.003l0.002,0.003  l5.86,4.196 M256.058,349.82c-51.895,0-93.964-42.071-93.964-93.965s42.07-93.963,93.964-93.963s93.964,42.069,93.964,93.963  S307.953,349.82,256.058,349.82z"/>
<path style="fill:#FC5162;" d="M317.188,327.185c41.005,38.435,95.662,62.478,155.922,64.045  c96.647-154.588,3.992-359.473-176.844-388.026c-36.31,44.026-56.145,100.152-53.948,159.698  c57.071-8.368,107.705,35.862,107.705,92.952C350.022,284.399,337.278,309.951,317.188,327.185z"/>
<path style="fill:#EF2235;" d="M15.46,342.912c14.869,41.225,34.816,65.158,49.039,82.452l20.347-13.22  c-33.413-43.221-53.307-97.428-53.307-156.289C31.538,119.833,137.711,8.627,271.7,0.54c-0.982-0.112-9.459-0.49-15.642-0.49  C78.093,0.049-44.7,177.212,15.46,342.912z"/>
<g>
	<circle style="fill:#2EBB4E;" cx="196.1" cy="95.897" r="15.301"/>
	<circle style="fill:#2EBB4E;" cx="136.196" cy="342.579" r="15.302"/>
</g>
<g>
	<circle style="fill:#FFCC00;" cx="421.059" cy="157.48" r="15.301"/>
	<circle style="fill:#FFCC00;" cx="338.292" cy="368.56" r="15.302"/>
</g>
<g>
	<circle style="fill:#57BAE5;" cx="436.357" cy="287.132" r="15.301"/>
	<circle style="fill:#57BAE5;" cx="299.042" cy="111.196" r="15.3"/>
	<circle style="fill:#57BAE5;" cx="98.815" cy="267.836" r="15.301"/>
</g>
<circle style="fill:#ECF1F8;" cx="370.018" cy="151.165" r="10.831"/>
<circle style="fill:#FFC373;" cx="98.815" cy="142.022" r="10.832"/>
<circle style="fill:#F9D58C;" cx="52.04" cy="293.966" r="10.832"/>
<circle style="fill:#ECF1F8;" cx="245.223" cy="72.902" r="10.832"/>
<circle style="fill:#F9D58C;" cx="391.681" cy="342.559" r="10.832"/>
<circle style="fill:#ECF1F8;" cx="169.96" cy="379.391" r="10.832"/>
<circle style="fill:#FFC373;" cx="443.392" cy="219.373" r="10.832"/>
<path style="fill:#57BAE5;" d="M384.825,230.456l-15.049-7.067c-4.17-1.959-5.964-6.927-4.006-11.097  c1.958-4.17,6.927-5.962,11.097-4.006l15.049,7.067c4.17,1.958,5.964,6.927,4.006,11.096  C393.969,230.606,389.014,232.417,384.825,230.456z"/>
<g>
	<path style="fill:#FFCC00;" d="M82.615,216.092l-15.05-7.067c-4.171-1.959-5.962-6.927-4.006-11.097   c1.959-4.17,6.928-5.959,11.097-4.006l15.05,7.067c4.171,1.958,5.963,6.927,4.006,11.096   C91.754,216.249,86.797,218.051,82.615,216.092z"/>
	<path style="fill:#FFCC00;" d="M334.749,80.453l-15.05-7.066c-4.171-1.959-5.963-6.927-4.006-11.097   c1.958-4.17,6.928-5.961,11.096-4.006l15.05,7.067c4.171,1.959,5.963,6.926,4.006,11.096   C343.888,80.612,338.927,82.414,334.749,80.453z"/>
	<path style="fill:#FFCC00;" d="M163.111,153.267l-15.05-7.066c-4.17-1.959-5.964-6.925-4.006-11.096   c1.959-4.169,6.927-5.959,11.096-4.005l15.05,7.065c4.17,1.959,5.964,6.926,4.006,11.096   C172.254,153.424,167.289,155.226,163.111,153.267z"/>
	<path style="fill:#FFCC00;" d="M359.109,319.211c-2.402-3.932-1.161-9.064,2.77-11.466l14.187-8.665   c3.932-2.4,9.065-1.16,11.466,2.77c2.401,3.932,1.161,9.065-2.771,11.467l-14.186,8.664   C366.65,324.382,361.512,323.146,359.109,319.211z"/>
	<path style="fill:#FFCC00;" d="M71.98,340.019c-8.371,0-11.544-11.074-4.356-15.461l14.188-8.665   c3.932-2.4,9.065-1.161,11.466,2.771c2.401,3.931,1.16,9.066-2.77,11.467l-14.188,8.664   C74.963,339.625,73.463,340.019,71.98,340.019z"/>
</g>
<g>
</g>
<g>
</g>
<g>
</g>
<g>
</g>
<g>
</g>
<g>
</g>
<g>
</g>
<g>
</g>
<g>
</g>
<g>
</g>
<g>
</g>
<g>
</g>
<g>
</g>
<g>
</g>
<g>
</g>
</svg>
